<?xml version="1.0" encoding="UTF-8" standalone="no"?>
<svg
   id="Autodesk Fusion 360"
   width="24"
   height="24"
   viewBox="0 0 24 24"
   version="1.1"
   sodipodi:docname="fusion360.svg"
   inkscape:version="1.3.2 (091e20e, 2023-11-25)"
   xmlns:inkscape="http://www.inkscape.org/namespaces/inkscape"
   xmlns:sodipodi="http://sodipodi.sourceforge.net/DTD/sodipodi-0.dtd"
   xmlns="http://www.w3.org/2000/svg"
   xmlns:svg="http://www.w3.org/2000/svg">
  <defs
     id="defs6" />
  <sodipodi:namedview
     id="namedview6"
     pagecolor="#505050"
     bordercolor="#eeeeee"
     borderopacity="1"
     inkscape:showpageshadow="0"
     inkscape:pageopacity="0"
     inkscape:pagecheckerboard="0"
     inkscape:deskcolor="#505050"
     inkscape:zoom="9.8333333"
     inkscape:cx="11.949153"
     inkscape:cy="12"
     inkscape:window-width="1328"
     inkscape:window-height="431"
     inkscape:window-x="0"
     inkscape:window-y="25"
     inkscape:window-maximized="0"
     inkscape:current-layer="Autodesk Fusion 360" />
  <rect
     width="24"
     height="24"
     stroke="none"
     fill="#000000"
     opacity="0"
     id="rect1" />
  <g
     transform="matrix(0.56451383,0,0,0.56451383,11.788504,12)"
     id="g6">
    <g
       id="g5">
      <g
         transform="translate(1.46)"
         id="g1">
        <path
           style="opacity:1;fill:#fb8c00;fill-rule:nonzero;stroke:none;stroke-width:1;stroke-linecap:butt;stroke-linejoin:miter;stroke-miterlimit:4;stroke-dasharray:none;stroke-dashoffset:0"
           transform="translate(-25.46,-24)"
           d="m 13,7.505 v 16.26 L 13.961,42 c 2.924,0.586 6.289,0.905 10.039,1 v -8.141 c -0.108,-3.915 1.75,-5.692 5.12,-6.267 l 7.791,-1.016 -2.202,-5.42 C 30.906,21.561 27.602,20.845 25.916,20 c -2.144,-1.124 -2.833,-3.667 -1,-5.583 0.61,-0.638 2.255,-1.407 4.119,-1.417 h 8.892 L 36.318,7.082 C 32.845,5.989 26.761,5.527 20.397,5 18.126,5.424 15.7,6.28 13,7.505 Z"
           stroke-linecap="round"
           id="path1" />
      </g>
      <g
         transform="translate(3.51,3.1)"
         id="g2">
        <path
           style="opacity:1;fill:#ffcc80;fill-rule:nonzero;stroke:none;stroke-width:1;stroke-linecap:butt;stroke-linejoin:miter;stroke-miterlimit:4;stroke-dasharray:none;stroke-dashoffset:0"
           transform="translate(-27.51,-27.1)"
           d="m 29.12,28.592 7.791,-1.016 -2.202,-5.42 C 30.906,21.561 27.602,20.845 25.916,20 c -2.144,-1.124 -2.833,-3.667 -1,-5.583 0.61,-0.638 2.255,-1.407 4.119,-1.417 h 8.241 c -3.658,-0.781 -6.671,-1.453 -9.693,-1.5 -5.69,-0.088 -9.327,2.78 -9.75,7.5 -0.269,2.996 -0.011,6.233 1.167,10 1.141,3.653 2.704,8.591 5,13.705 v -7.846 c -0.108,-3.915 1.75,-5.692 5.12,-6.267 z"
           stroke-linecap="round"
           id="path2" />
      </g>
      <g
         transform="translate(6.34,0.5)"
         id="g3">
        <path
           style="opacity:1;fill:#fb8c00;fill-rule:nonzero;stroke:none;stroke-width:1;stroke-linecap:butt;stroke-linejoin:miter;stroke-miterlimit:4;stroke-dasharray:none;stroke-dashoffset:0"
           transform="translate(-30.34,-24.5)"
           d="m 24,24.5 c 0,1.381 1.119,2.5 2.5,2.5 H 36.677 L 34.709,22.156 C 34.385,22.105 34.07,22.052 33.754,22 H 26.5 C 25.119,22 24,23.119 24,24.5 Z"
           stroke-linecap="round"
           id="path3" />
      </g>
      <g
         transform="translate(-4.49,0.17)"
         id="g4">
        <path
           style="opacity:1;fill:#ffcc80;fill-rule:nonzero;stroke:none;stroke-width:1;stroke-linecap:butt;stroke-linejoin:miter;stroke-miterlimit:4;stroke-dasharray:none;stroke-dashoffset:0"
           transform="translate(-19.51,-24.17)"
           d="m 19.917,5.333 c 0,0 -0.38,0.511 -0.905,1.483 -0.259,0.487 -0.559,1.086 -0.85,1.795 -0.296,0.707 -0.587,1.52 -0.869,2.417 -0.286,0.895 -0.522,1.887 -0.736,2.94 -0.085,0.531 -0.171,1.076 -0.26,1.633 -0.052,0.562 -0.14,1.132 -0.188,1.715 -0.101,1.166 -0.125,2.382 -0.123,3.605 0.021,1.23 0.13,2.465 0.315,3.702 0.345,2.473 0.974,4.905 1.765,7.108 0.795,2.201 1.798,4.164 2.718,5.82 0.928,1.65 1.715,3.024 2.302,3.964 C 23.668,42.46 24,43 24,43 c 0,0 -0.408,-0.487 -1.074,-1.376 -0.655,-0.896 -1.61,-2.169 -2.624,-3.787 -0.999,-1.619 -2.175,-3.542 -3.058,-5.792 -0.896,-2.237 -1.558,-4.736 -1.932,-7.28 -0.178,-1.27 -0.28,-2.566 -0.29,-3.829 0.006,-1.272 0.085,-2.509 0.215,-3.708 0.133,-1.197 0.36,-2.341 0.613,-3.414 0.277,-1.068 0.572,-2.068 0.914,-2.967 0.326,-0.904 0.7,-1.704 1.064,-2.393 0.358,-0.692 0.714,-1.271 1.018,-1.738 0.623,-0.927 1.071,-1.383 1.071,-1.383 z"
           stroke-linecap="round"
           id="path4" />
      </g>
    </g>
  </g>
</svg>
