<?xml version="1.0" encoding="UTF-8" standalone="no"?>
<svg
   version="1.1"
   id="svg833"
   xml:space="preserve"
   viewBox="0 0 1691.9906 1676.8079"
   sodipodi:docname="riverpod.svg"
   inkscape:export-filename="/Users/remirousselet/Desktop/test.svg.png"
   inkscape:export-xdpi="96"
   inkscape:export-ydpi="96"
   inkscape:version="1.3.2 (091e20e, 2023-11-25)"
   xmlns:inkscape="http://www.inkscape.org/namespaces/inkscape"
   xmlns:sodipodi="http://sodipodi.sourceforge.net/DTD/sodipodi-0.dtd"
   xmlns="http://www.w3.org/2000/svg"
   xmlns:svg="http://www.w3.org/2000/svg"
   xmlns:rdf="http://www.w3.org/1999/02/22-rdf-syntax-ns#"
   xmlns:cc="http://creativecommons.org/ns#"
   xmlns:dc="http://purl.org/dc/elements/1.1/">
  <metadata
   id="metadata839">
    <rdf:RDF>
      <cc:Work
   rdf:about="">
        <dc:format>image/svg+xml</dc:format>
        <dc:type
   rdf:resource="http://purl.org/dc/dcmitype/StillImage" />
        <dc:title />
      </cc:Work>
    </rdf:RDF>
  </metadata>
  <defs
   id="defs837" />
  <sodipodi:namedview
   fit-margin-bottom="0"
   fit-margin-right="0"
   fit-margin-left="0"
   fit-margin-top="0"
   pagecolor="#ffffff"
   bordercolor="#666666"
   inkscape:document-rotation="0"
   borderopacity="1"
   objecttolerance="10"
   gridtolerance="10"
   guidetolerance="10"
   inkscape:pageopacity="0"
   inkscape:pageshadow="2"
   inkscape:window-width="1328"
   inkscape:window-height="431"
   id="namedview835"
   showgrid="false"
   inkscape:snap-page="true"
   inkscape:zoom="0.14076955"
   inkscape:cx="1296.4451"
   inkscape:cy="1122.4018"
   inkscape:window-x="0"
   inkscape:window-y="25"
   inkscape:window-maximized="0"
   inkscape:current-layer="g843"
   inkscape:showpageshadow="0"
   inkscape:pagecheckerboard="0"
   inkscape:deskcolor="#505050" />
  <g
   id="g841"
   inkscape:groupmode="layer"
   inkscape:label="ink_ext_XXXXXX"
   transform="matrix(1.3333333,0,0,-1.3333333,-1.931474,3891.8827)">
    <g
   id="g843"
   transform="scale(0.1)">
      <path
   d="m 7298.3856,17602.103 c 1.0287,-0.515 2.0745,-0.944 3.1375,-1.369 211.1667,-89.07 445.7022,-115.216 669.1876,-64.294 2191.4773,498.745 3827.9693,2459.709 3827.9693,4803.091 v 2577.841 c -192.624,-41.92 -392.364,-89.154 -586.702,-142.647 h -1.801 c -954.978,-262.147 -1790.4545,-668.742 -1185.064,-1231.441 1176.149,-1092.31 -998.6974,-1515.792 -2482.4108,-1835.032 -2318.3675,-497.549 -4378.1366,-2346.897 -244.3166,-4106.149"
   style="fill:#2855a3;fill-opacity:1;fill-rule:nonzero;stroke:none;stroke-width:0.857251"
   id="path897"
   inkscape:connector-curvature="0" />
      <path
   d="m 920.22173,23364.975 v -1021.5 c 0,-419.625 410.45187,-714.519 808.91947,-583.017 473.117,156.191 1020.5234,293.094 1652.1032,405.223 5343.8474,946.92 4525.2581,1337.483 4115.9892,1593.373 -409.2861,256.832 -1115.4897,858.708 1075.3532,1298.307 1125.3136,226.486 2325.4652,351.302 3226.0932,419.11 v 2815.042 H 5846.7334 c -2720.8384,0 -4926.51167,-2205.708 -4926.51167,-4926.538"
   style="fill:#6dd0f6;fill-opacity:1;fill-rule:nonzero;stroke:none;stroke-width:0.857251"
   id="path899"
   inkscape:connector-curvature="0" />
      <path
   d="m 11211.978,24774.725 c 236.515,67.637 586.702,142.647 586.702,142.647 -192.624,-41.92 -392.364,-89.154 -586.702,-142.647"
   style="fill:#c4c2c1;fill-opacity:1;fill-rule:nonzero;stroke:none;stroke-width:0.857251"
   id="path901"
   inkscape:connector-curvature="0" />
      <path
   d="m 7298.3856,17602.103 c -1723.7695,733.549 -2370.5827,1482.874 -2370.7713,2143.215 -0.2658,923.259 1263.4598,1672.84 2615.0879,1962.934 1187.4474,255.461 2817.4248,577.787 2818.2818,1256.13 0.257,169.307 -100.984,360.817 -335.871,578.902 -142.475,132.445 -205.1401,256.232 -205.2258,371.532 -0.3429,374.534 660.0838,659.484 1390.2898,859.909 h 1.801 v 0 c 194.338,53.493 394.078,100.727 586.702,142.647 v 0 -828.362 c -720.519,-258.547 -1203.752,-617.05 -703.546,-1080.737 1176.149,-1092.309 -998.698,-1515.791 -2482.4279,-1835.032 -2083.8407,-447.656 -3959.035,-1986.68 -1314.3205,-3571.138"
   style="fill:#22427a;fill-opacity:1;fill-rule:nonzero;stroke:none;stroke-width:0.857251"
   id="path903"
   inkscape:connector-curvature="0" />
    </g>
  </g>
</svg>
