<?xml version="1.0" encoding="UTF-8" standalone="no"?>
<!-- Uploaded to: SVG Repo, www.svgrepo.com, Generator: SVG Repo Mixer Tools -->

<svg
   viewBox="0 0 256 256"
   version="1.1"
   preserveAspectRatio="xMidYMid"
   id="svg2"
   sodipodi:docname="typescript.svg"
   inkscape:version="1.3.2 (091e20e, 2023-11-25)"
   xmlns:inkscape="http://www.inkscape.org/namespaces/inkscape"
   xmlns:sodipodi="http://sodipodi.sourceforge.net/DTD/sodipodi-0.dtd"
   xmlns="http://www.w3.org/2000/svg"
   xmlns:svg="http://www.w3.org/2000/svg">
  <defs
     id="defs2" />
  <sodipodi:namedview
     id="namedview2"
     pagecolor="#505050"
     bordercolor="#eeeeee"
     borderopacity="1"
     inkscape:showpageshadow="0"
     inkscape:pageopacity="0"
     inkscape:pagecheckerboard="0"
     inkscape:deskcolor="#505050"
     inkscape:zoom="0.83605277"
     inkscape:cx="117.81553"
     inkscape:cy="118.41358"
     inkscape:window-width="1328"
     inkscape:window-height="431"
     inkscape:window-x="0"
     inkscape:window-y="25"
     inkscape:window-maximized="0"
     inkscape:current-layer="svg2" />
  <g
     id="g2"
     transform="matrix(0.85983241,0,0,0.85983241,17.941451,17.941451)">
    <polygon
       fill="#007acc"
       transform="matrix(1,0,0,-1,0,256)"
       points="0,0 128,0 256,0 256,128 256,256 128,256 0,256 0,128 "
       id="polygon1" />
    <path
       d="m 146.65813,223.43686 0.0813,-10.48381 H 130.07908 113.41877 V 165.61337 118.27369 H 101.63464 89.850513 v 47.33968 47.33968 H 73.190195 56.529878 v 10.28064 c 0,5.68889 0.121904,10.44317 0.284444,10.56508 0.121905,0.16254 20.39873,0.24381 44.982858,0.20317 l 44.73905,-0.1219 z"
       fill="#ffffff"
       transform="rotate(180,101.63464,176.14299)"
       id="path1" />
    <path
       d="m 206.56663,234.27214 c 6.50159,-1.62539 11.45905,-4.51047 16.01016,-9.22412 2.35683,-2.51937 5.85143,-7.11111 6.13587,-8.20826 0.0813,-0.32508 -11.0527,-7.8019 -17.79809,-11.9873 -0.24381,-0.16254 -1.21905,0.89397 -2.31619,2.51937 -3.29143,4.79492 -6.7454,6.8673 -12.02794,7.23301 -7.76127,0.52826 -12.75936,-3.53524 -12.71873,-10.32127 0,-1.99111 0.28444,-3.16952 1.09714,-4.79492 1.70667,-3.53524 4.87619,-5.64825 14.83175,-9.95555 18.32635,-7.88318 26.16889,-13.08445 31.04508,-20.48 5.44508,-8.24889 6.66413,-21.41461 2.96635,-31.20762 -4.06349,-10.64635 -14.14095,-17.87937 -28.32254,-20.27683 -4.38857,-0.77206 -14.79111,-0.65016 -19.50476,0.20318 -10.28064,1.82857 -20.03302,6.90793 -26.04699,13.57206 -2.35682,2.60064 -6.94857,9.38667 -6.66412,9.87429 0.1219,0.16254 1.17841,0.81269 2.35682,1.50349 1.13778,0.65016 5.44508,3.12889 9.50857,5.48571 l 7.35492,4.26667 1.54413,-2.27556 c 2.15365,-3.29143 6.8673,-7.8019 9.71175,-9.30539 8.16761,-4.30731 19.38285,-3.69778 24.9092,1.25968 2.35683,2.15365 3.33207,4.38857 3.33207,7.68 0,2.96635 -0.36572,4.26667 -1.90985,6.50159 -1.99111,2.84444 -6.0546,5.2419 -17.59492,10.24 -13.20635,5.68889 -18.89523,9.22412 -24.0965,14.83174 -3.00699,3.2508 -5.85143,8.45207 -7.02985,12.8 -0.97523,3.61651 -1.21904,12.6781 -0.44698,16.33524 2.72254,12.75937 12.35302,21.65841 26.25016,24.29968 4.51048,0.85334 14.99428,0.52826 19.42349,-0.56889 z"
       fill="#ffffff"
       transform="matrix(1,0,0,-1,0,352.38048)"
       id="path2" />
  </g>
</svg>
