<svg xmlns="http://www.w3.org/2000/svg" xmlns:xlink="http://www.w3.org/1999/xlink" viewBox="0 0 64 64" id="laser-cutting">
  <defs>
    <linearGradient id="b" x1="32" x2="32" y1="61" y2="34" gradientUnits="userSpaceOnUse">
      <stop offset="0" stop-color="#838383"></stop>
      <stop offset="1" stop-color="#a1a1a1"></stop>
    </linearGradient>
    <linearGradient id="c" x1="32" x2="32" y1="28" y2="42" gradientUnits="userSpaceOnUse">
      <stop offset="0" stop-color="#ffc033"></stop>
      <stop offset="1" stop-color="#ef8e2e"></stop>
    </linearGradient>
    <linearGradient id="d" x1="32" x2="32" y1="3" y2="30" gradientUnits="userSpaceOnUse">
      <stop offset="0" stop-color="#42bfff"></stop>
      <stop offset="1" stop-color="#1174ac"></stop>
    </linearGradient>
    <linearGradient id="a" x1="32" x2="32" y1="61" y2="3" gradientUnits="userSpaceOnUse">
      <stop offset="0" stop-color="#000406"></stop>
      <stop offset="1" stop-color="#001521"></stop>
    </linearGradient>
    <linearGradient xlink:href="#a" id="e" x1="26.88" x2="26.88" y1="43.77" y2="39.55" gradientTransform="rotate(50.2 26.934 41.66)"></linearGradient>
    <linearGradient xlink:href="#a" id="f" x1="25.15" x2="25.15" y1="46.11" y2="43.13" gradientTransform="rotate(75.7 25.18 44.622)"></linearGradient>
    <linearGradient xlink:href="#a" id="g" x1="37.13" x2="37.13" y1="43.77" y2="39.55" gradientTransform="rotate(39.8 37.125 41.708)"></linearGradient>
    <linearGradient xlink:href="#a" id="h" x1="38.85" x2="38.85" y1="46.11" y2="43.13" gradientTransform="rotate(14.3 38.784 44.528)"></linearGradient>
  </defs>
  <g>
    <path fill="url(#b)" d="M61,59.7l-8-25a1.2,1.2,0,0,0-1-.7H12a1.2,1.2,0,0,0-1,.7l-8,25A1,1,0,0,0,4,61H60A1,1,0,0,0,61,59.7Z"></path>
    <path fill="url(#c)" d="M36,28H28a.9.9,0,0,0-1,1v7.6a1.1,1.1,0,0,0,.3.7l4,4.4a1,1,0,0,0,1.4,0l4-4.4a1.1,1.1,0,0,0,.3-.7V29A.9.9,0,0,0,36,28Z"></path>
    <rect width="18" height="27" x="23" y="3" fill="url(#d)" rx="1"></rect>
  </g>
  <g>
    <path fill="url(#a)" d="M60,61a1,1,0,0,0,1-1.3l-8-25a1.2,1.2,0,0,0-1-.7H37V30h3a.9.9,0,0,0,1-1V4a.9.9,0,0,0-1-1H24a.9.9,0,0,0-1,1V29a.9.9,0,0,0,1,1h3v4H12a1.2,1.2,0,0,0-1,.7l-8,25A1,1,0,0,0,4,61ZM25,5H39V28H25ZM35,30v6.2l-3,3.3-3-3.3V30ZM12.7,36H27v.6a1.1,1.1,0,0,0,.3.7L31,41.4V47H17a1,1,0,0,0-.9.7l-2,6A.9.9,0,0,0,15,55H50a1.2,1.2,0,0,0,.8-.4.8.8,0,0,0,.1-.9l-5-14-1.8.6L48.6,53H16.4l1.3-4H39V47H33V41.4l3.7-4.1a1.1,1.1,0,0,0,.3-.7V36H51.3l7.3,23H5.4Z"></path>
    <rect width="2" height="4.18" x="25.9" y="39.6" fill="url(#e)" transform="rotate(-50.2 26.849 41.603)"></rect>
    <rect width="2" height="4.23" x="24.1" y="42.5" fill="url(#f)" transform="rotate(-75.7 25.17 44.635)"></rect>
    <rect width="4.2" height="2" x="35" y="40.7" fill="url(#g)" transform="rotate(-39.8 37.083 41.7)"></rect>
    <rect width="4.2" height="2" x="36.7" y="43.6" fill="url(#h)" transform="rotate(-14.3 38.945 44.562)"></rect>
  </g>
</svg>
