<?xml version="1.0" encoding="UTF-8" standalone="no"?>
<!-- Uploaded to: SVG Repo, www.svgrepo.com, Generator: SVG Repo Mixer Tools -->

<svg
   fill="#000000"
   viewBox="0 0 24 24"
   role="img"
   version="1.1"
   id="svg1"
   sodipodi:docname="openai.svg"
   inkscape:version="1.3.2 (091e20e, 2023-11-25)"
   xmlns:inkscape="http://www.inkscape.org/namespaces/inkscape"
   xmlns:sodipodi="http://sodipodi.sourceforge.net/DTD/sodipodi-0.dtd"
   xmlns="http://www.w3.org/2000/svg"
   xmlns:svg="http://www.w3.org/2000/svg">
  <defs
     id="defs1" />
  <sodipodi:namedview
     id="namedview1"
     pagecolor="#505050"
     bordercolor="#eeeeee"
     borderopacity="1"
     inkscape:showpageshadow="0"
     inkscape:pageopacity="0"
     inkscape:pagecheckerboard="0"
     inkscape:deskcolor="#505050"
     inkscape:zoom="9.8333333"
     inkscape:cx="11.949153"
     inkscape:cy="12"
     inkscape:window-width="1328"
     inkscape:window-height="431"
     inkscape:window-x="0"
     inkscape:window-y="25"
     inkscape:window-maximized="0"
     inkscape:current-layer="svg1" />
  <title
     id="title1">OpenAI icon</title>
  <path
     d="M 20.713478,10.153483 A 5.0717823,5.0717823 0 0 0 20.276444,5.9917856 5.123901,5.123901 0 0 0 14.759661,3.5341572 5.1399179,5.1399179 0 0 0 6.0514361,5.3744124 5.0717823,5.0717823 0 0 0 2.663553,7.8320408 a 5.123901,5.123901 0 0 0 0.6294071,6.0140712 5.0677992,5.0677992 0 0 0 0.4330511,4.161612 5.1279688,5.1279688 0 0 0 5.5208503,2.457713 5.0717823,5.0717823 0 0 0 3.8208495,1.704069 5.1319518,5.1319518 0 0 0 4.891358,-3.564239 5.0757654,5.0757654 0 0 0 3.387884,-2.457713 5.1319518,5.1319518 0 0 0 -0.633475,-5.993987 z m -7.645767,10.684836 a 3.7927986,3.7927986 0 0 1 -2.437628,-0.882035 l 0.120254,-0.06814 4.049409,-2.337459 a 0.67355967,0.67355967 0 0 0 0.332797,-0.577373 v -5.70924 l 1.711865,0.990339 a 0.06016952,0.06016952 0 0 1 0.0322,0.04407 V 17.0295 a 3.8169511,3.8169511 0 0 1 -3.8089,3.808816 z M 4.8806728,17.342215 A 3.7888155,3.7888155 0 0 1 4.4276217,14.788231 l 0.120339,0.0722 4.053392,2.337459 a 0.65355966,0.65355966 0 0 0 0.6615258,0 l 4.9515275,-2.854662 v 1.976611 a 0.06813563,0.06813563 0 0 1 -0.02814,0.05212 L 10.084743,18.73747 A 3.8128833,3.8128833 0 0 1 4.8806728,17.342215 Z M 3.8142316,8.5217022 a 3.8008494,3.8008494 0 0 1 2.004662,-1.6718653 v 4.8111891 a 0.64949186,0.64949186 0 0 0 0.328729,0.573305 l 4.9274604,2.842629 -1.7119503,0.990255 a 0.06415258,0.06415258 0 0 1 -0.060169,0 L 5.2094865,13.705773 A 3.8169511,3.8169511 0 0 1 3.8142316,8.5017022 Z M 17.8789,11.789331 12.935423,8.9186516 14.64339,7.9322104 a 0.06415258,0.06415258 0 0 1 0.06017,0 l 4.093477,2.3655096 a 3.8088155,3.8088155 0 0 1 -0.573305,6.86797 V 12.354501 A 0.66949187,0.66949187 0 0 0 17.878815,11.789246 Z M 19.582884,9.2273805 19.462545,9.1551771 15.417204,6.7977183 a 0.65754272,0.65754272 0 0 0 -0.665594,0 L 9.8042347,9.652296 V 7.6757696 a 0.05610172,0.05610172 0 0 1 0.024068,-0.052119 L 13.921779,5.2621242 a 3.8128833,3.8128833 0 0 1 5.66119,3.9491546 z M 8.8699121,12.731365 7.1580469,11.745094 a 0.06813563,0.06813563 0 0 1 -0.032204,-0.04805 V 6.9781421 A 3.8128833,3.8128833 0 0 1 13.37644,4.0512762 l -0.120339,0.06822 -4.0493243,2.3372894 A 0.67355967,0.67355967 0 0 0 8.8739799,7.0341591 Z m 0.93017,-2.004577 2.2050859,-1.2710175 2.209238,1.2710175 v 2.541866 l -2.201187,1.270933 -2.2090691,-1.270933 z"
     id="path1"
     style="stroke-width:0.847458;fill:#ffffff;fill-opacity:1" />
</svg>
